<?xml version="1.0" encoding="UTF-8"?>
<svg xmlns="http://www.w3.org/2000/svg" xmlns:xlink="http://www.w3.org/1999/xlink" width="100px" height="100px" viewBox="0 0 100 100" version="1.1">
<g id="surface1">
<path style=" stroke:none;fill-rule:nonzero;fill:rgb(25.882354%,16.470589%,98.431373%);fill-opacity:1;" d="M 23.273438 90.125 C 28.421875 95.273438 34.0625 97.871094 40.191406 97.921875 C 46.269531 97.921875 51.886719 95.347656 57.035156 90.199219 L 80.574219 66.660156 L 73.511719 59.597656 L 50.195312 82.914062 C 46.957031 86.152344 43.523438 87.867188 39.894531 88.0625 C 36.265625 88.164062 32.910156 86.667969 29.820312 83.578125 C 26.730469 80.488281 25.234375 77.128906 25.332031 73.5 C 25.480469 69.824219 27.171875 66.367188 30.40625 63.128906 L 53.726562 39.8125 L 46.738281 32.824219 L 23.199219 56.363281 C 17.953125 61.609375 15.351562 67.25 15.402344 73.28125 C 15.402344 79.261719 18.027344 84.875 23.273438 90.125 Z M 23.273438 90.125 "/>
<path style=" stroke:none;fill-rule:nonzero;fill:rgb(25.882354%,16.470589%,98.431373%);fill-opacity:1;" d="M 76.714844 9.863281 C 81.863281 15.011719 84.460938 20.652344 84.511719 26.78125 C 84.511719 32.863281 81.9375 38.476562 76.789062 43.625 L 53.25 67.164062 L 46.1875 60.101562 L 69.507812 36.785156 C 72.742188 33.546875 74.457031 30.117188 74.65625 26.488281 C 74.753906 22.859375 73.257812 19.5 70.167969 16.410156 C 67.078125 13.320312 63.71875 11.824219 60.089844 11.921875 C 56.414062 12.070312 52.957031 13.761719 49.71875 16.996094 L 26.402344 40.316406 L 19.414062 33.328125 L 42.953125 9.789062 C 48.199219 4.542969 53.839844 1.945312 59.871094 1.992188 C 65.851562 1.992188 71.46875 4.617188 76.714844 9.863281 Z M 76.714844 9.863281 "/>
</g>
</svg>
